<svg width="70" height="70" viewBox="0 0 70 70" fill="none" xmlns="http://www.w3.org/2000/svg">
<g opacity="0.7">
<path fill-rule="evenodd" clip-rule="evenodd" d="M35 31.8889C30.8529 31.8889 28.7778 29.6841 28.7778 25.2778C28.7778 20.8715 30.8529 18.6667 35 18.6667C39.1471 18.6667 41.2222 20.8715 41.2222 25.2778C41.2222 29.6841 39.1471 31.8889 35 31.8889Z" fill="#2F5888"/>
<path d="M25.6667 41.2222C25.6667 41.2222 28 38.1111 35 38.1111C42 38.1111 44.3333 41.2222 44.3333 41.2222" stroke="#2F5888" stroke-width="4" stroke-linecap="round" stroke-linejoin="round"/>
<path d="M29.7156 54.4444C14.8901 53.4089 12.4445 47.325 12.4445 31.986C12.4445 14.9965 15.4379 9.33331 35 9.33331C54.5589 9.33331 57.5556 14.9965 57.5556 31.986C57.5556 47.325 55.1067 53.4089 40.2812 54.4444" stroke="#2F5888" stroke-width="4" stroke-linecap="round" stroke-linejoin="round"/>
<path d="M29.5555 54.4445H29.5918L34.9983 60.6667L40.4081 54.4445H40.4444" stroke="#2F5888" stroke-width="4" stroke-linecap="round" stroke-linejoin="round"/>
</g>
</svg>
